<?xml version="1.0" encoding="UTF-8"?>
<!DOCTYPE svg PUBLIC "-//W3C//DTD SVG 1.1//EN" "http://www.w3.org/Graphics/SVG/1.1/DTD/svg11.dtd">
<!-- Creator: CorelDRAW -->
<svg xmlns="http://www.w3.org/2000/svg" xml:space="preserve" width="109.364mm" height="98.5439mm" version="1.1" style="shape-rendering:geometricPrecision; text-rendering:geometricPrecision; image-rendering:optimizeQuality; fill-rule:evenodd; clip-rule:evenodd"
viewBox="0 0 434.45 391.46"
 xmlns:xlink="http://www.w3.org/1999/xlink"
 xmlns:xodm="http://www.corel.com/coreldraw/odm/2003">
 <defs>
  <style type="text/css">
   <![CDATA[
    .fil0 {fill:#CFB815}
    .fil1 {fill:#FFE319}
   ]]>
  </style>
 </defs>
 <g id="图层_x0020_1">
  <metadata id="CorelCorpID_0Corel-Layer"/>
  <g id="_2365890536064">
   <path class="fil0" d="M36.2 52.31c-80.1,84.24 -11.1,221.33 51.24,324.73 9.21,15.27 24.98,19.13 37.28,6.21 12.49,-13.13 22.31,-25.58 38.14,-37 29,-20.9 55.93,-25.17 81.37,-14.81 42.63,17.36 59.7,53.84 74.86,58.82 16.76,5.51 24.66,-8.75 33.59,-23.6 28.7,-47.76 56.85,-100.9 71.38,-153.75 10.97,-39.89 16.33,-77.99 0.33,-120.36 -25.32,-67.05 -103.12,-85.11 -163.53,-90.78 -41.49,-3.89 -102.84,-1.4 -140.89,8 -26.55,6.56 -60.83,18.43 -83.76,42.54z"/>
   <path class="fil1" d="M112.18 332.64c47.52,-44.21 99.15,-66.98 160.24,-36.07 19.16,9.69 31.78,20.87 49.32,36.56 13.33,-18.53 39.84,-73.13 48.21,-95.25 33.45,-88.36 38.21,-162.11 -69.99,-186.48 -28.74,-6.47 -46.32,-6.49 -74.79,-7.69 -67.47,-2.83 -176.86,9.43 -181.22,94.79 -0.21,4.17 -0.52,7.62 -0.42,12.16 0.87,41.88 20.65,91.14 39.44,129.24 5.93,12.03 20.99,43.23 29.21,52.73z"/>
  </g>
 </g>
</svg>
