<?xml version="1.0" encoding="UTF-8"?>
<!DOCTYPE svg PUBLIC "-//W3C//DTD SVG 1.1//EN" "http://www.w3.org/Graphics/SVG/1.1/DTD/svg11.dtd">
<!-- Creator: CorelDRAW -->
<svg xmlns="http://www.w3.org/2000/svg" xml:space="preserve" width="113mm" height="113mm" version="1.1" style="shape-rendering:geometricPrecision; text-rendering:geometricPrecision; image-rendering:optimizeQuality; fill-rule:evenodd; clip-rule:evenodd"
viewBox="0 0 640.18 640.18"
 xmlns:xlink="http://www.w3.org/1999/xlink"
 xmlns:xodm="http://www.corel.com/coreldraw/odm/2003">
 <defs>
  <style type="text/css">
   <![CDATA[
    .fil0 {fill:#292929}
    .fil3 {fill:#333333}
    .fil1 {fill:#CFCFCF}
    .fil2 {fill:white}
   ]]>
  </style>
 </defs>
 <g id="图层_x0020_1">
  <metadata id="CorelCorpID_0Corel-Layer"/>
  <path class="fil0" d="M320.09 320.09l0 -320.09c176.78,0 320.09,143.31 320.09,320.09 0,176.78 -143.31,320.09 -320.09,320.09l0 -320.09z"/>
  <path class="fil1" d="M320.09 320.09l0 320.09c-176.78,0 -320.09,-143.31 -320.09,-320.09 0,-176.78 143.31,-320.09 320.09,-320.09l0 320.09z"/>
  <path class="fil2" d="M320.09 320.09l0 249.27c-137.67,0 -249.27,-111.6 -249.27,-249.27 0,-137.67 111.6,-249.27 249.27,-249.27l0 249.27z"/>
  <path class="fil3" d="M320.09 320.09l0 -249.27c137.67,0 249.27,111.6 249.27,249.27 0,137.67 -111.6,249.27 -249.27,249.27l0 -249.27z"/>
  <path class="fil1" d="M320.09 177.75l0 -177.75c98.17,0 177.75,79.58 177.75,177.75 0,98.17 -79.58,177.75 -177.75,177.75l0 -177.75z"/>
  <path class="fil0" d="M320.09 462.43l0 177.75c-98.17,0 -177.75,-79.58 -177.75,-177.75 0,-98.17 79.58,-177.75 177.75,-177.75l0 177.75z"/>
  <path class="fil2" d="M320.09 70.82c59.06,0 106.93,47.88 106.93,106.93 0,59.06 -47.88,106.93 -106.93,106.93 -59.06,0 -106.93,-47.88 -106.93,-106.93 0,-59.06 47.88,-106.93 106.93,-106.93z"/>
  <path class="fil3" d="M320.09 355.5c59.06,0 106.93,47.88 106.93,106.93 0,59.06 -47.88,106.93 -106.93,106.93 -59.06,0 -106.93,-47.88 -106.93,-106.93 0,-59.06 47.88,-106.93 106.93,-106.93z"/>
  <path class="fil1" d="M320.09 284.68c19.55,0 35.41,15.85 35.41,35.41 0,19.55 -15.85,35.41 -35.41,35.41 -19.55,0 -35.41,-15.85 -35.41,-35.41 0,-19.55 15.85,-35.41 35.41,-35.41z"/>
  <path class="fil1" d="M320.09 0c19.55,0 35.41,15.85 35.41,35.41 0,19.55 -15.85,35.41 -35.41,35.41 -19.55,0 -35.41,-15.85 -35.41,-35.41 0,-19.55 15.85,-35.41 35.41,-35.41z"/>
  <path class="fil0" d="M320.09 569.36c19.55,0 35.41,15.85 35.41,35.41 0,19.55 -15.85,35.41 -35.41,35.41 -19.55,0 -35.41,-15.85 -35.41,-35.41 0,-19.55 15.85,-35.41 35.41,-35.41z"/>
 </g>
</svg>
