<?xml version="1.0" encoding="UTF-8" standalone="no"?>
<!-- Created with Inkscape (http://www.inkscape.org/) -->

<svg
   width="78.338432mm"
   height="78.338814mm"
   viewBox="0 0 78.338432 78.338814"
   version="1.1"
   id="svg5"
   xml:space="preserve"
   inkscape:version="1.2.2 (732a01da63, 2022-12-09)"
   sodipodi:docname="ant_hole.svg"
   xmlns:inkscape="http://www.inkscape.org/namespaces/inkscape"
   xmlns:sodipodi="http://sodipodi.sourceforge.net/DTD/sodipodi-0.dtd"
   xmlns="http://www.w3.org/2000/svg"
   xmlns:svg="http://www.w3.org/2000/svg"><sodipodi:namedview
     id="namedview7"
     pagecolor="#ffffff"
     bordercolor="#000000"
     borderopacity="0.25"
     inkscape:showpageshadow="2"
     inkscape:pageopacity="0.0"
     inkscape:pagecheckerboard="0"
     inkscape:deskcolor="#d1d1d1"
     inkscape:document-units="mm"
     showgrid="false"
     inkscape:lockguides="true"
     inkscape:zoom="0.69486532"
     inkscape:cx="976.44821"
     inkscape:cy="-109.37371"
     inkscape:window-width="1920"
     inkscape:window-height="974"
     inkscape:window-x="-11"
     inkscape:window-y="-11"
     inkscape:window-maximized="1"
     inkscape:current-layer="layer1" /><defs
     id="defs2" /><g
     inkscape:label="图层 1"
     inkscape:groupmode="layer"
     id="layer1"
     transform="translate(-84.683251,-151.45576)"><path
       style="fill:#b58500;fill-opacity:1;stroke:#b58500;stroke-width:16.7032;stroke-linecap:round;stroke-linejoin:round;stroke-miterlimit:7.5;stroke-dashoffset:174.804;stroke-opacity:1"
       id="path914-0"
       sodipodi:type="arc"
       sodipodi:cx="123.85179"
       sodipodi:cy="190.62585"
       sodipodi:rx="30.856974"
       sodipodi:ry="30.856436"
       sodipodi:start="4.1500971"
       sodipodi:end="4.1242734"
       sodipodi:arc-type="slice"
       d="m 107.40112,164.52022 a 30.856974,30.856436 0 0 1 42.45002,9.48706 30.856974,30.856436 0 0 1 -9.21298,42.50964 30.856974,30.856436 0 0 1 -42.568974,-8.93819 30.856974,30.856436 0 0 1 8.663334,-42.62505 l 17.11927,25.67217 z" /><path
       style="fill:#946d00;fill-opacity:1;stroke:#946d00;stroke-width:10.9624;stroke-linecap:round;stroke-linejoin:round;stroke-miterlimit:7.5;stroke-dashoffset:174.804;stroke-opacity:1"
       id="path914"
       sodipodi:type="arc"
       sodipodi:cx="123.38745"
       sodipodi:cy="190.1593"
       sodipodi:rx="20.251623"
       sodipodi:ry="20.25127"
       sodipodi:start="4.1500971"
       sodipodi:end="4.1242734"
       sodipodi:arc-type="slice"
       d="m 112.59077,173.02601 a 20.251623,20.25127 0 0 1 27.86021,6.22642 20.251623,20.25127 0 0 1 -6.04653,27.89934 20.251623,20.25127 0 0 1 -27.93828,-5.86619 20.251623,20.25127 0 0 1 5.6858,-27.97508 l 11.23548,16.8488 z" /><path
       style="fill:#6b4f00;fill-opacity:1;stroke:#6b4f00;stroke-width:14.0329;stroke-linecap:round;stroke-linejoin:round;stroke-miterlimit:7.5;stroke-dashoffset:174.804;stroke-opacity:1"
       id="path912"
       sodipodi:type="arc"
       sodipodi:cx="123.56229"
       sodipodi:cy="190.27365"
       sodipodi:rx="5.8455648"
       sodipodi:ry="5.8455648"
       sodipodi:start="4.1500971"
       sodipodi:end="4.1242734"
       sodipodi:arc-type="slice"
       d="m 120.44586,185.3281 a 5.8455648,5.8455648 0 0 1 8.04176,1.79726 5.8455648,5.8455648 0 0 1 -1.74531,8.0532 5.8455648,5.8455648 0 0 1 -8.0643,-1.69329 5.8455648,5.8455648 0 0 1 1.64119,-8.07506 l 3.24309,4.86344 z" /></g></svg>
