<?xml version="1.0" encoding="UTF-8" standalone="no"?>
<!-- Creator: CorelDRAW -->

<svg
   xml:space="preserve"
   width="10.4001mm"
   height="20.036682mm"
   version="1.1"
   style="clip-rule:evenodd;fill-rule:evenodd;image-rendering:optimizeQuality;shape-rendering:geometricPrecision;text-rendering:geometricPrecision"
   viewBox="0 0 253.21459 487.85"
   id="svg23"
   sodipodi:docname="bee.svg"
   inkscape:version="1.2.2 (732a01da63, 2022-12-09)"
   xmlns:inkscape="http://www.inkscape.org/namespaces/inkscape"
   xmlns:sodipodi="http://sodipodi.sourceforge.net/DTD/sodipodi-0.dtd"
   xmlns="http://www.w3.org/2000/svg"
   xmlns:svg="http://www.w3.org/2000/svg"><sodipodi:namedview
   id="namedview25"
   pagecolor="#505050"
   bordercolor="#ffffff"
   borderopacity="1"
   inkscape:showpageshadow="0"
   inkscape:pageopacity="0"
   inkscape:pagecheckerboard="1"
   inkscape:deskcolor="#505050"
   inkscape:document-units="mm"
   showgrid="false"
   inkscape:zoom="4.1496512"
   inkscape:cx="70.969821"
   inkscape:cy="9.6393645"
   inkscape:window-width="1920"
   inkscape:window-height="1027"
   inkscape:window-x="-8"
   inkscape:window-y="-8"
   inkscape:window-maximized="1"
   inkscape:current-layer="圖層_x0020_1" />
 <defs
   id="defs4">
  <style
   type="text/css"
   id="style2">
   <![CDATA[
    .fil0 {fill:#292929}
    .fil3 {fill:#333333}
    .fil1 {fill:#D3BD46}
    .fil2 {fill:#FFE763}
   ]]>
  </style>
 </defs>
 <g
   id="圖層_x0020_1"
   inkscape:label="圖層 1"
   inkscape:groupmode="layer"
   transform="translate(-117.3102,117.315)">
  <metadata
   id="CorelCorpID_0Corel-Layer" />
  <g
   id="_1977234564080"
   transform="rotate(-90,243.915,126.61)">
   <path
   class="fil0"
   d="M 3.04,121.28 120.05,53.73 120.02,199.36 3.04,131.82 c -1.89,-1.09 -3.05,-3.1 -3.05,-5.27 0,-2.17 1.16,-4.19 3.04,-5.27 z"
   id="path7" />
   <path
   class="fil1"
   d="m 233.26,0 c 100.85,0 182.61,56.68 182.61,126.61 0,69.93 -81.76,126.61 -182.61,126.61 C 132.41,253.22 50.65,196.54 50.65,126.61 50.65,56.69 132.4,0 233.26,0 Z"
   id="path9" />
   <path
   class="fil2"
   d="m 233.26,23.13 c 88.08,0 159.48,46.33 159.48,103.47 0,57.15 -71.4,103.48 -159.48,103.48 -88.07,0 -159.48,-46.33 -159.48,-103.48 0,-57.15 71.4,-103.47 159.48,-103.47 z"
   id="path11" />
   <path
   class="fil3"
   d="m 290.73,30.07 2.29,0.58 c 19.13,5.02 36.43,12.38 51.03,21.53 v 148.84 c -15.15,9.5 -33.19,17.07 -53.18,22.1 l -0.14,0.03 V 30.06 Z"
   id="path13" />
   <path
   class="fil3"
   d="m 120.05,199.48 c -28.6,-18.7 -46.27,-44.44 -46.27,-72.87 0,-28.43 17.67,-54.17 46.27,-72.87 z"
   id="path15" />
   <path
   class="fil3"
   d="m 233.26,23.13 v 0 206.95 0 c -18.65,0 -36.54,-2.08 -53.18,-5.9 l -0.13,-0.03 V 29.06 l 2.31,-0.52 c 16.01,-3.5 33.17,-5.41 51.01,-5.41 z"
   id="path17" />
   <path
   class="fil3"
   d="m 461.06,19.98 c 14.79,0 26.78,11.99 26.78,26.78 0,14.79 -11.99,26.78 -26.78,26.78 -4.05,0 -7.89,-0.9 -11.33,-2.51 -11.47,20.43 -33.33,34.24 -58.42,34.24 h -12.17 c -3.36,0 -6.09,-2.72 -6.09,-6.09 0,-3.36 2.72,-6.09 6.09,-6.09 h 12.17 c 21.23,0 39.64,-12.08 48.73,-29.74 -0.77,-0.97 -1.48,-2 -2.11,-3.08 -1.56,-2.65 -2.67,-5.6 -3.23,-8.73 -0.28,-1.55 -0.43,-3.15 -0.43,-4.79 0,-14.79 11.99,-26.78 26.78,-26.78 z m -69.75,127.97 c 25.09,0 46.96,13.81 58.42,34.24 3.44,-1.61 7.28,-2.51 11.33,-2.51 14.79,0 26.78,11.99 26.78,26.78 0,14.79 -11.99,26.78 -26.78,26.78 -14.79,0 -26.78,-11.99 -26.78,-26.78 0,-1.63 0.15,-3.23 0.43,-4.79 0.56,-3.14 1.68,-6.08 3.23,-8.73 0.63,-1.08 1.33,-2.11 2.11,-3.08 -9.09,-17.66 -27.5,-29.74 -48.73,-29.74 h -12.17 c -3.36,0 -6.09,-2.72 -6.09,-6.09 0,-3.36 2.72,-6.09 6.09,-6.08 h 12.17 z"
   id="path19" />
  </g>
 </g>
</svg>
