<?xml version="1.0" encoding="UTF-8" standalone="no"?>
<!-- Created with Inkscape (http://www.inkscape.org/) -->

<svg
   width="76.973549mm"
   height="102.47202mm"
   viewBox="0 0 76.973549 102.47202"
   version="1.1"
   id="svg5"
   xml:space="preserve"
   inkscape:version="1.2.2 (732a01da63, 2022-12-09)"
   sodipodi:docname="beetle.svg"
   xmlns:inkscape="http://www.inkscape.org/namespaces/inkscape"
   xmlns:sodipodi="http://sodipodi.sourceforge.net/DTD/sodipodi-0.dtd"
   xmlns="http://www.w3.org/2000/svg"
   xmlns:svg="http://www.w3.org/2000/svg"><sodipodi:namedview
     id="namedview7"
     pagecolor="#ffffff"
     bordercolor="#000000"
     borderopacity="0.25"
     inkscape:showpageshadow="2"
     inkscape:pageopacity="0.0"
     inkscape:pagecheckerboard="0"
     inkscape:deskcolor="#d1d1d1"
     inkscape:document-units="mm"
     showgrid="false"
     showguides="false"
     inkscape:zoom="0.49134398"
     inkscape:cx="241.17524"
     inkscape:cy="128.21975"
     inkscape:window-width="1920"
     inkscape:window-height="974"
     inkscape:window-x="-11"
     inkscape:window-y="-11"
     inkscape:window-maximized="1"
     inkscape:current-layer="layer1" /><defs
     id="defs2" /><g
     inkscape:label="图层 1"
     inkscape:groupmode="layer"
     id="layer1"
     transform="translate(-53.308259,-27.594281)"><rect
       style="fill:#8f5eac;fill-opacity:1;stroke:none;stroke-width:1.47419;stroke-linecap:round;stroke-linejoin:round;stroke-miterlimit:2.1;stroke-dasharray:none;stroke-dashoffset:174.804;stroke-opacity:1"
       id="rect2034"
       width="82.690956"
       height="47.229179"
       x="-118.6553"
       y="69.38549"
       ry="0.16381899"
       transform="rotate(-90)" /><path
       id="path1931-7"
       style="fill:#8f5eac;fill-opacity:1;stroke:#655297;stroke-width:6.90994;stroke-linecap:round;stroke-linejoin:round;stroke-miterlimit:2.1;stroke-dasharray:none;stroke-dashoffset:174.804;stroke-opacity:1"
       d="M 69.535455,118.94471 A 28.967486,48.548687 5.7299163 0 1 56.763379,81.281855 28.967486,48.548687 5.7299163 0 1 69.687392,39.216068 m -0.150655,-0.05889 a 23.642561,30.756218 76.313793 0 1 23.945205,-8.107714 23.642561,30.756218 76.313793 0 1 21.352228,8.258623 m -0.77956,-0.59223 a 28.967486,48.548687 5.7299163 0 1 12.77208,37.662866 28.967486,48.548687 5.7299163 0 1 -12.92402,42.065777 m 0.15066,0.0589 a 23.642561,30.756218 76.313793 0 1 -23.945208,8.10772 23.642561,30.756218 76.313793 0 1 -21.352217,-8.25863" /><path
       style="fill:none;fill-opacity:1;stroke:#764894;stroke-width:8.666;stroke-linecap:round;stroke-linejoin:round;stroke-miterlimit:2.1;stroke-dasharray:none;stroke-dashoffset:174.804;stroke-opacity:1"
       id="path8952"
       sodipodi:type="arc"
       sodipodi:cx="93.835587"
       sodipodi:cy="134.33638"
       sodipodi:rx="6.6911197"
       sodipodi:ry="83.393005"
       sodipodi:start="3.2497716"
       sodipodi:end="4.1760982"
       sodipodi:open="true"
       sodipodi:arc-type="arc"
       d="M 87.183581,125.3326 A 6.6911197,83.393005 0 0 1 90.416752,62.650934"
       transform="matrix(0.98596051,-0.16697865,0.04356189,0.99905073,0,0)" /><path
       style="fill:#774792;fill-opacity:1;stroke:#764894;stroke-width:3.99418;stroke-linecap:round;stroke-linejoin:round;stroke-miterlimit:2.1;stroke-dasharray:none;stroke-dashoffset:174.804;stroke-opacity:1"
       id="path14682"
       sodipodi:type="arc"
       sodipodi:cx="-105.80221"
       sodipodi:cy="104.52206"
       sodipodi:rx="5.5682979"
       sodipodi:ry="5.1567116"
       sodipodi:start="3.2497716"
       sodipodi:end="3.0904614"
       sodipodi:open="true"
       sodipodi:arc-type="arc"
       d="m -111.33796,103.9653 a 5.5682979,5.1567116 0 0 1 5.91606,-4.587914 5.5682979,5.1567116 0 0 1 5.18572,5.291744 5.5682979,5.1567116 0 0 1 -5.50309,5.00931 5.5682979,5.1567116 0 0 1 -5.62396,-4.89283"
       transform="rotate(-90)" /><path
       style="fill:#774792;fill-opacity:1;stroke:#764894;stroke-width:3.99418;stroke-linecap:round;stroke-linejoin:round;stroke-miterlimit:2.1;stroke-dasharray:none;stroke-dashoffset:174.804;stroke-opacity:1"
       id="path14682-2"
       sodipodi:type="arc"
       sodipodi:cx="-78.694839"
       sodipodi:cy="107.09499"
       sodipodi:rx="5.5682979"
       sodipodi:ry="5.1567116"
       sodipodi:start="3.2497716"
       sodipodi:end="3.0904614"
       sodipodi:open="true"
       sodipodi:arc-type="arc"
       d="m -84.230587,106.53823 a 5.5682979,5.1567116 0 0 1 5.916052,-4.58791 5.5682979,5.1567116 0 0 1 5.185728,5.29174 5.5682979,5.1567116 0 0 1 -5.503091,5.00932 5.5682979,5.1567116 0 0 1 -5.623962,-4.89283"
       transform="rotate(-90)" /><path
       style="fill:#774792;fill-opacity:1;stroke:#764894;stroke-width:3.99418;stroke-linecap:round;stroke-linejoin:round;stroke-miterlimit:2.1;stroke-dasharray:none;stroke-dashoffset:174.804;stroke-opacity:1"
       id="path14682-5"
       sodipodi:type="arc"
       sodipodi:cx="-54.766029"
       sodipodi:cy="104.522"
       sodipodi:rx="5.5682979"
       sodipodi:ry="5.1567116"
       sodipodi:start="3.2497716"
       sodipodi:end="3.0904614"
       sodipodi:open="true"
       sodipodi:arc-type="arc"
       d="m -60.301777,103.96524 a 5.5682979,5.1567116 0 0 1 5.916052,-4.587907 5.5682979,5.1567116 0 0 1 5.185728,5.291737 5.5682979,5.1567116 0 0 1 -5.503091,5.00932 5.5682979,5.1567116 0 0 1 -5.623962,-4.89283"
       transform="rotate(-90)" /><path
       style="fill:#774792;fill-opacity:1;stroke:#764894;stroke-width:3.99418;stroke-linecap:round;stroke-linejoin:round;stroke-miterlimit:2.1;stroke-dasharray:none;stroke-dashoffset:174.804;stroke-opacity:1"
       id="path14682-7"
       sodipodi:type="arc"
       sodipodi:cx="-54.521656"
       sodipodi:cy="78.277489"
       sodipodi:rx="5.5682979"
       sodipodi:ry="5.1567116"
       sodipodi:start="3.2497716"
       sodipodi:end="3.0904614"
       sodipodi:open="true"
       sodipodi:arc-type="arc"
       d="m -60.057404,77.720728 a 5.5682979,5.1567116 0 0 1 5.916053,-4.58791 5.5682979,5.1567116 0 0 1 5.185728,5.29174 5.5682979,5.1567116 0 0 1 -5.503092,5.009313 5.5682979,5.1567116 0 0 1 -5.623962,-4.892828"
       transform="rotate(-90)" /><path
       style="fill:#774792;fill-opacity:1;stroke:#764894;stroke-width:3.99418;stroke-linecap:round;stroke-linejoin:round;stroke-miterlimit:2.1;stroke-dasharray:none;stroke-dashoffset:174.804;stroke-opacity:1"
       id="path14682-24"
       sodipodi:type="arc"
       sodipodi:cx="-79.20945"
       sodipodi:cy="75.9618"
       sodipodi:rx="5.5682979"
       sodipodi:ry="5.1567116"
       sodipodi:start="3.2497716"
       sodipodi:end="3.0904614"
       sodipodi:open="true"
       sodipodi:arc-type="arc"
       d="m -84.745197,75.405039 a 5.5682979,5.1567116 0 0 1 5.916052,-4.58791 5.5682979,5.1567116 0 0 1 5.185728,5.29174 5.5682979,5.1567116 0 0 1 -5.503092,5.009313 5.5682979,5.1567116 0 0 1 -5.623961,-4.892828"
       transform="rotate(-90)" /><path
       style="fill:#774792;fill-opacity:1;stroke:#764894;stroke-width:3.99418;stroke-linecap:round;stroke-linejoin:round;stroke-miterlimit:2.1;stroke-dasharray:none;stroke-dashoffset:174.804;stroke-opacity:1"
       id="path14682-22"
       sodipodi:type="arc"
       sodipodi:cx="-106.48315"
       sodipodi:cy="77.762886"
       sodipodi:rx="5.5682979"
       sodipodi:ry="5.1567116"
       sodipodi:start="3.2497716"
       sodipodi:end="3.0904614"
       sodipodi:open="true"
       sodipodi:arc-type="arc"
       d="m -112.01889,77.206126 a 5.5682979,5.1567116 0 0 1 5.91605,-4.58791 5.5682979,5.1567116 0 0 1 5.18573,5.291739 5.5682979,5.1567116 0 0 1 -5.5031,5.009313 5.5682979,5.1567116 0 0 1 -5.62396,-4.892828"
       transform="rotate(-90)" /></g></svg>
