<?xml version="1.0" encoding="UTF-8" standalone="no"?>
<!-- Created with Inkscape (http://www.inkscape.org/) -->

<svg
   width="51.859104mm"
   height="49.574394mm"
   viewBox="0 0 51.859104 49.574394"
   version="1.1"
   id="svg5"
   xml:space="preserve"
   inkscape:version="1.2.2 (732a01da63, 2022-12-09)"
   sodipodi:docname="bush.svg"
   xmlns:inkscape="http://www.inkscape.org/namespaces/inkscape"
   xmlns:sodipodi="http://sodipodi.sourceforge.net/DTD/sodipodi-0.dtd"
   xmlns="http://www.w3.org/2000/svg"
   xmlns:svg="http://www.w3.org/2000/svg"><sodipodi:namedview
     id="namedview7"
     pagecolor="#ffffff"
     bordercolor="#000000"
     borderopacity="0.25"
     inkscape:showpageshadow="2"
     inkscape:pageopacity="0.0"
     inkscape:pagecheckerboard="0"
     inkscape:deskcolor="#d1d1d1"
     inkscape:document-units="mm"
     showgrid="false"
     inkscape:zoom="0.98268796"
     inkscape:cx="22.896383"
     inkscape:cy="116.00834"
     inkscape:window-width="1920"
     inkscape:window-height="974"
     inkscape:window-x="-11"
     inkscape:window-y="-11"
     inkscape:window-maximized="1"
     inkscape:current-layer="layer1" /><defs
     id="defs2" /><g
     inkscape:label="图层 1"
     inkscape:groupmode="layer"
     id="layer1"
     transform="translate(-137.8964,-157.65304)"><path
       id="path6041-6"
       style="fill:#30a550;fill-opacity:1;stroke:#229248;stroke-width:3.22;stroke-linecap:round;stroke-linejoin:round;stroke-miterlimit:42;stroke-dasharray:none;stroke-opacity:1"
       d="m 163.43137,159.26315 c -1.079,0.008 -2.17313,0.54193 -3.23805,1.73994 -3.25748,3.66459 -4.53183,8.64393 -5.02966,12.14396 -9.08332,-0.91966 -18.53423,1.70288 -14.86628,7.95869 2.40051,4.09415 6.54719,6.8016 9.69036,8.38037 -3.43365,8.21028 -3.67008,17.4958 3.23908,15.9799 4.93492,-1.08274 8.98642,-4.53254 11.42618,-7.09982 6.80014,6.0512 15.93444,9.44495 16.64394,2.24947 0.43622,-4.42393 -1.08198,-8.76596 -2.60242,-11.86646 7.52359,-4.62973 13.05048,-11.91964 6.61458,-14.7345 -4.4055,-1.92682 -9.42313,-1.64862 -12.89999,-1.06298 -1.4672,-7.05039 -5.12668,-13.71722 -8.97774,-13.68857 z" /><path
       id="path6310-7-8"
       style="fill:#30a550;fill-opacity:1;stroke:#229248;stroke-width:2.06217;stroke-linecap:round;stroke-linejoin:round;stroke-miterlimit:42;stroke-dasharray:none;stroke-opacity:1"
       d="m 169.93917,174.6 -5.53223,4.36601 m 3.61763,-6.86087 -3.64598,2.927 m -6.44702,-0.20358 5.68326,4.16752 m -3.85815,-6.72855 3.74729,2.79615 m 0.33526,-4.059 0.66077,13.2194" /><path
       id="path6310-7-8-7"
       style="fill:#30a550;fill-opacity:1;stroke:#229248;stroke-width:2.06217;stroke-linecap:round;stroke-linejoin:round;stroke-miterlimit:42;stroke-dasharray:none;stroke-opacity:1"
       d="m 175.90751,187.00873 -5.95476,-3.76942 m 7.67268,1.13527 -3.97124,-2.46775 m -1.94787,-6.14909 -2.04485,6.74435 m 5.06648,-5.87277 -1.39382,4.46295 m 3.94017,-1.03102 -12.25063,5.01111" /><path
       id="path6310-7-8-7-5"
       style="fill:#30a550;fill-opacity:1;stroke:#229248;stroke-width:2.06217;stroke-linecap:round;stroke-linejoin:round;stroke-miterlimit:42;stroke-dasharray:none;stroke-opacity:1"
       d="m 166.2383,196.05231 2.06752,-6.73743 m 0.92615,7.70072 1.33439,-4.48108 m 5.4187,-3.499 -7.0448,-0.19585 m 7.00005,3.34035 -4.67249,-0.16884 m 2.03261,3.52936 -8.06144,-10.49772" /><path
       id="path6310-7-8-7-5-0"
       style="fill:#30a550;fill-opacity:1;stroke:#229248;stroke-width:2.06217;stroke-linecap:round;stroke-linejoin:round;stroke-miterlimit:42;stroke-dasharray:none;stroke-opacity:1"
       d="m 153.76519,189.35528 7.04754,-0.002 m -7.08925,3.14664 4.67537,-0.04 m 4.93593,4.15234 -1.8815,-6.79172 m -1.13753,7.67231 -1.21067,-4.51606 m -2.77688,2.97939 7.66766,-10.78869" /><path
       id="path6310-7-8-7-5-5"
       style="fill:#30a550;fill-opacity:1;stroke:#229248;stroke-width:2.06217;stroke-linecap:round;stroke-linejoin:round;stroke-miterlimit:42;stroke-dasharray:none;stroke-opacity:1"
       d="m 156.00136,176.0988 2.25425,6.67727 m -5.24724,-5.71185 1.53237,4.41729 m -2.35711,6.00411 5.83426,-3.95335 m -7.63352,1.37409 3.89233,-2.59045 m -3.71061,-1.67908 12.67339,3.81764" /></g></svg>
