<?xml version="1.0" encoding="UTF-8"?>
<!DOCTYPE svg PUBLIC "-//W3C//DTD SVG 1.1//EN" "http://www.w3.org/Graphics/SVG/1.1/DTD/svg11.dtd">
<!-- Creator: CorelDRAW -->
<svg xmlns="http://www.w3.org/2000/svg" xml:space="preserve" width="20.7119mm" height="22.7368mm" version="1.1" style="shape-rendering:geometricPrecision; text-rendering:geometricPrecision; image-rendering:optimizeQuality; fill-rule:evenodd; clip-rule:evenodd"
viewBox="0 0 287.54 315.65"
 xmlns:xlink="http://www.w3.org/1999/xlink"
 xmlns:xodm="http://www.corel.com/coreldraw/odm/2003">
 <defs>
  <style type="text/css">
   <![CDATA[
    .fil0 {fill:#333333}
    .fil1 {fill:#734c8c}
    .fil2 {fill:#8f5dae}
   ]]>
  </style>
 </defs>
 <g id="圖層_x0020_1">
  <metadata id="CorelCorpID_0Corel-Layer"/>
  <g id="_2216302196432">
   <circle class="fil0" cx="238.95" cy="192.09" r="48.59"/>
   <circle class="fil0" cx="48.59" cy="192.09" r="48.59"/>
  </g>
  <circle class="fil1" cx="143.77" cy="192.09" r="123.55"/>
  <circle class="fil2" cx="143.77" cy="192.09" r="102.73"/>
  <g id="_2216302199600">
   <path class="fil0" d="M243.07 0c8.43,0 15.27,6.84 15.27,15.27 0,8.43 -6.84,15.27 -15.27,15.27 -4.27,0 -8.14,-1.75 -10.91,-4.58 -31.63,18.9 -51.04,53.05 -51.04,89.97 0,2.49 -2.02,4.51 -4.51,4.51 -2.49,0 -4.51,-2.02 -4.51,-4.51 0,-40.29 21.29,-77.55 55.93,-98.01 -0.15,-0.86 -0.23,-1.75 -0.23,-2.65 0,-8.43 6.84,-15.27 15.27,-15.27z"/>
   <path class="fil0" d="M44.46 0c-8.43,0 -15.27,6.84 -15.27,15.27 0,8.43 6.84,15.27 15.27,15.27 4.27,0 8.14,-1.75 10.91,-4.58 31.63,18.9 51.04,53.05 51.04,89.97 0,2.49 2.02,4.51 4.51,4.51 2.49,0 4.51,-2.02 4.51,-4.51 0,-40.29 -21.29,-77.55 -55.93,-98.01 0.15,-0.86 0.23,-1.75 0.23,-2.65 0,-8.43 -6.84,-15.27 -15.27,-15.27z"/>
  </g>
 </g>
</svg>
