<?xml version="1.0" encoding="UTF-8" standalone="no"?>
<!-- Created with Inkscape (http://www.inkscape.org/) -->

<svg
   width="61.000942mm"
   height="61.340511mm"
   viewBox="0 0 61.000942 61.340511"
   version="1.1"
   id="svg1662"
   xml:space="preserve"
   inkscape:version="1.2.2 (732a01da63, 2022-12-09)"
   sodipodi:docname="fire_ant_hole.svg"
   xmlns:inkscape="http://www.inkscape.org/namespaces/inkscape"
   xmlns:sodipodi="http://sodipodi.sourceforge.net/DTD/sodipodi-0.dtd"
   xmlns="http://www.w3.org/2000/svg"
   xmlns:svg="http://www.w3.org/2000/svg"><sodipodi:namedview
     id="namedview1664"
     pagecolor="#ffffff"
     bordercolor="#000000"
     borderopacity="0.25"
     inkscape:showpageshadow="2"
     inkscape:pageopacity="0.0"
     inkscape:pagecheckerboard="0"
     inkscape:deskcolor="#d1d1d1"
     inkscape:document-units="mm"
     showgrid="false"
     inkscape:zoom="0.34743266"
     inkscape:cx="-1296.6541"
     inkscape:cy="129.5215"
     inkscape:window-width="1920"
     inkscape:window-height="974"
     inkscape:window-x="-11"
     inkscape:window-y="-11"
     inkscape:window-maximized="1"
     inkscape:current-layer="layer1" /><defs
     id="defs1659" /><g
     inkscape:label="图层 1"
     inkscape:groupmode="layer"
     id="layer1"
     transform="translate(-13.074091,-114.716)"><path
       style="fill:#b58500;fill-opacity:1;stroke:#b52d00;stroke-width:13.0426;stroke-linecap:round;stroke-linejoin:round;stroke-miterlimit:7.5;stroke-dashoffset:174.804;stroke-opacity:1"
       id="path914-0"
       sodipodi:type="arc"
       sodipodi:cx="43.574177"
       sodipodi:cy="145.38695"
       sodipodi:rx="24.002171"
       sodipodi:ry="24.186823"
       sodipodi:start="4.1500971"
       sodipodi:end="4.1242734"
       sodipodi:arc-type="slice"
       d="m 30.777981,124.92404 a 24.002171,24.186823 0 0 1 33.01985,7.43643 24.002171,24.186823 0 0 1 -7.166335,33.32119 24.002171,24.186823 0 0 1 -33.11238,-7.0062 24.002171,24.186823 0 0 1 6.738796,-33.41165 l 13.316265,20.12314 z" /><path
       style="fill:#946d00;fill-opacity:1;stroke:#942500;stroke-width:9.00509;stroke-linecap:round;stroke-linejoin:round;stroke-miterlimit:7.5;stroke-dasharray:none;stroke-dashoffset:174.804;stroke-opacity:1"
       id="path914"
       sodipodi:type="arc"
       sodipodi:cx="43.166836"
       sodipodi:cy="144.89848"
       sodipodi:rx="14.89123"
       sodipodi:ry="14.89097"
       sodipodi:start="4.1500971"
       sodipodi:end="4.1242734"
       sodipodi:arc-type="slice"
       d="m 35.227925,132.30019 a 14.89123,14.89097 0 0 1 20.485904,4.57835 14.89123,14.89097 0 0 1 -4.446079,20.51468 14.89123,14.89097 0 0 1 -20.54331,-4.31347 14.89123,14.89097 0 0 1 4.180828,-20.57037 l 8.261568,12.3891 z" /><path
       style="fill:#6b1b00;fill-opacity:1;stroke:#6b1b00;stroke-width:11.4298;stroke-linecap:round;stroke-linejoin:round;stroke-miterlimit:7.5;stroke-dashoffset:174.804;stroke-opacity:1"
       id="path912"
       sodipodi:type="arc"
       sodipodi:cx="43.119987"
       sodipodi:cy="144.79126"
       sodipodi:rx="4.7611961"
       sodipodi:ry="4.7611961"
       sodipodi:start="4.1500971"
       sodipodi:end="4.1242734"
       sodipodi:arc-type="slice"
       d="m 40.581667,140.76312 a 4.7611961,4.7611961 0 0 1 6.54999,1.46387 4.7611961,4.7611961 0 0 1 -1.421551,6.5593 4.7611961,4.7611961 0 0 1 -6.568345,-1.37917 4.7611961,4.7611961 0 0 1 1.336743,-6.57712 l 2.641483,3.96126 z" /></g></svg>
