<?xml version="1.0" encoding="UTF-8" standalone="no"?>
<!-- Created with Inkscape (http://www.inkscape.org/) -->

<svg
   width="39.625603mm"
   height="44.407001mm"
   viewBox="0 0 39.625603 44.407002"
   version="1.1"
   id="svg5"
   xml:space="preserve"
   inkscape:version="1.2.2 (732a01da63, 2022-12-09)"
   sodipodi:docname="leech_head.svg"
   xmlns:inkscape="http://www.inkscape.org/namespaces/inkscape"
   xmlns:sodipodi="http://sodipodi.sourceforge.net/DTD/sodipodi-0.dtd"
   xmlns="http://www.w3.org/2000/svg"
   xmlns:svg="http://www.w3.org/2000/svg"><sodipodi:namedview
     id="namedview7"
     pagecolor="#ffffff"
     bordercolor="#000000"
     borderopacity="0.25"
     inkscape:showpageshadow="2"
     inkscape:pageopacity="0.0"
     inkscape:pagecheckerboard="0"
     inkscape:deskcolor="#d1d1d1"
     inkscape:document-units="mm"
     showgrid="false"
     inkscape:zoom="0.98268796"
     inkscape:cx="-456.40124"
     inkscape:cy="-139.41353"
     inkscape:window-width="1920"
     inkscape:window-height="974"
     inkscape:window-x="-11"
     inkscape:window-y="-11"
     inkscape:window-maximized="1"
     inkscape:current-layer="layer1" /><defs
     id="defs2"><inkscape:path-effect
       effect="powerclip"
       id="path-effect16440"
       is_visible="true"
       lpeversion="1"
       inverse="true"
       flatten="false"
       hide_clip="false"
       message="如果将裁剪转换为路径后没有平面化的结果，请在&lt;b&gt;填充与描边&lt;/b&gt; 对话框中使用“填充规则偶数”。" /><clipPath
       clipPathUnits="userSpaceOnUse"
       id="clipPath16436"><rect
         style="display:none;fill:#333333;fill-opacity:1;stroke:none;stroke-width:11.6087;stroke-linecap:round;stroke-linejoin:round;stroke-miterlimit:42;stroke-dasharray:none;stroke-opacity:1"
         id="rect16438"
         width="50.3867"
         height="18.208069"
         x="152.08466"
         y="-46.989292"
         ry="0.42579004"
         d="m 152.51045,-46.989292 h 49.53512 c 0.23588,0 0.42579,0.189902 0.42579,0.42579 v 17.356489 c 0,0.235887 -0.18991,0.42579 -0.42579,0.42579 h -49.53512 c -0.23589,0 -0.42579,-0.189903 -0.42579,-0.42579 v -17.356489 c 0,-0.235888 0.1899,-0.42579 0.42579,-0.42579 z" /><path
         id="lpe_path-effect16440"
         style="fill:#333333;fill-opacity:1;stroke:none;stroke-width:11.6087;stroke-linecap:round;stroke-linejoin:round;stroke-miterlimit:42;stroke-dasharray:none;stroke-opacity:1"
         class="powerclip"
         d="m 154.55899,-96.795092 h 49.62561 v 68.406816 h -49.62561 z m -2.04854,49.8058 c -0.23589,0 -0.42579,0.189902 -0.42579,0.42579 v 17.356489 c 0,0.235887 0.1899,0.42579 0.42579,0.42579 h 49.53512 c 0.23588,0 0.42579,-0.189903 0.42579,-0.42579 v -17.356489 c 0,-0.235888 -0.18991,-0.42579 -0.42579,-0.42579 z" /></clipPath></defs><g
     inkscape:label="图层 1"
     inkscape:groupmode="layer"
     id="layer1"
     transform="translate(-131.55757,-47.673558)"><path
       id="path5491"
       style="fill:#333333;fill-opacity:1;stroke:#292929;stroke-width:7.32;stroke-linecap:round;stroke-linejoin:round;stroke-miterlimit:42;stroke-dasharray:none;stroke-opacity:1"
       d="m 179.3876,-88.13508 a 16.15383,22.717083 0 0 0 -4.5377,0.907955 16.15383,22.717083 0 0 0 -11.51506,24.445536 v 25.525574 c 0,0.115107 0.0926,0.207739 0.20773,0.207739 h 31.75672 c 0.11511,0 0.20774,-0.09263 0.20774,-0.207739 v -27.106873 a 16.15383,22.717083 0 0 0 -0.65009,-7.520471 16.15383,22.717083 0 0 0 -15.46934,-16.251721 z"
       clip-path="url(#clipPath16436)"
       inkscape:path-effect="#path-effect16440"
       inkscape:original-d="m 179.3876,-88.13508 a 16.15383,22.717083 0 0 0 -4.5377,0.907955 16.15383,22.717083 0 0 0 -11.51506,24.445536 v 25.525574 c 0,0.115107 0.0926,0.207739 0.20773,0.207739 h 31.75672 c 0.11511,0 0.20774,-0.09263 0.20774,-0.207739 v -27.106873 a 16.15383,22.717083 0 0 0 -0.65009,-7.520471 16.15383,22.717083 0 0 0 -15.46934,-16.251721 z"
       transform="translate(-28.001429,139.46865)" /></g></svg>
